<svg xmlns="http://www.w3.org/2000/svg" xmlns:xlink="http://www.w3.org/1999/xlink" x="0" y="0" version="1.1" viewBox="0 0 476.1 385.3" xml:space="preserve" style="enable-background:new 0 0 476.1 385.3"><style type="text/css">.st0,.st1{stroke:#006de9}.st0,.st1,.st2{fill:#fff;stroke-linecap:round;stroke-linejoin:round;stroke-miterlimit:10}.st1{stroke-width:6}.st2{stroke:#326de6;stroke-width:2}.st3{opacity:.71;fill:#326ce6}.st4{opacity:.45;fill:#fff}.st5{fill:#fff;stroke:#006de9;stroke-width:2;stroke-linecap:round;stroke-linejoin:round;stroke-miterlimit:10}.st6{fill:#006de9}.st7{fill:#a0caea}.st8{fill:#fff}.st9{opacity:.13}.st10{fill:url(#SVGID_1_)}.st13{fill:#326de6}.st16{fill:#fff;stroke:#326de6;stroke-width:1.6;stroke-linecap:round;stroke-linejoin:round;stroke-miterlimit:10}.st42{fill:#011f38}.st62{fill:none;stroke:#011f38;stroke-width:.3;stroke-linecap:round;stroke-linejoin:round;stroke-miterlimit:10}</style><symbol id="master_x5F_level1_1_" viewBox="-68.6 -66.9 137.2 133.9"><g><g><line x1="0" x2="0" y1="-11.1" y2=".7" class="st0"/><line x1="5.9" x2="-5.9" y1="-5.2" y2="-5.2" class="st0"/></g><polygon points="-29.2 -63.9 -65.6 -18.3 -52.6 38.6 0 63.9 52.6 38.6 65.6 -18.3 29.2 -63.9" class="st1"/></g></symbol><symbol id="node_high_level" viewBox="-81 -93 162 186.1"><polygon points="-80 -46 -80 46 0 92 80 46 80 -46 0 -92" class="st2"/></symbol><symbol id="node_x5F_empty" viewBox="-87.5 -100.6 175.1 201.1"><use id="XMLID_201_" width="162" height="186.1" x="-81" y="-93" transform="matrix(1.0808 0 0 1.0808 -3.292006e-05 -3.749943e-05)" xlink:href="#node_high_level" style="overflow:visible"/><g><polygon points="76.8 -28.1 -14 -80.3 0 -88.3 76.7 -44.4" class="st3"/><polygon points="76.8 -28.1 32.1 -53.8 38.8 -66.1 76.7 -44.4" class="st4"/></g></symbol><symbol id="node_x5F_new" viewBox="-87.6 -101 175.2 202"><polygon points="0 -100 -86.6 -50 -86.6 50 0 100 86.6 50 86.6 -50" class="st5"/><polygon points="-86.6 -20.2 -86.6 -50 0 -100 25.8 -85.1" class="st6"/><polygon points="-40.8 -70.7 -32.9 -57 15.7 -85.1 0 -94.3" class="st7"/><text class="st8" transform="matrix(0.866 -0.5 -0.5 -0.866 -33.9256 -70.7388)" style="font-family:'RobotoSlab-Regular';font-size:11.3632px">Docker</text><text class="st8" transform="matrix(0.866 -0.5 -0.5 -0.866 -76.0668 -46.4087)" style="font-family:'RobotoSlab-Regular';font-size:11.3632px">Kubelt</text></symbol><g id="CLUSTER"><g id="XMLID_296_" class="st9"><g><linearGradient id="SVGID_1_" x1="28.635" x2="343.09" y1="185.293" y2="185.293" gradientUnits="userSpaceOnUse"><stop offset="0" style="stop-color:#326de6"/><stop offset="1" style="stop-color:#10ffc6"/></linearGradient><polygon points="311.9 92.7 343.1 229.2 255.8 338.6 115.9 338.6 28.6 229.2 59.8 92.7 185.9 32" class="st10"/></g></g></g><g id="master"><use width="137.2" height="133.9" x="-68.6" y="-66.9" transform="matrix(0.4 0 0 -0.4 185.8606 187.2514)" xlink:href="#master_x5F_level1_1_" style="overflow:visible"/></g><g id="Node"><polygon points="182.7 139.9 147.1 160.4 111.4 139.9 111.4 98.7 147.1 78.2 182.7 98.7" class="st16"/><polygon points="129.3 150.2 147.1 160.4 182.7 139.9 182.7 119.3" class="st13"/><polygon points="163.5 147.7 157.4 137.2 179.9 124.2 179.9 138.3" class="st7"/><g><path d="M162.5,139.3c0.4-0.3,0.9-0.3,1.3-0.2c0.4,0.1,0.8,0.4,1,0.8l0.3,0.5c0.3,0.4,0.3,0.9,0.2,1.3 c-0.1,0.4-0.4,0.8-0.8,1l-1.4,0.8l-0.2-0.3l0.3-0.3l-1.6-2.7l-0.4,0.2l-0.2-0.3l0.4-0.2L162.5,139.3z M162.1,140l1.6,2.7l0.6-0.3 c0.3-0.2,0.5-0.4,0.6-0.8c0.1-0.3,0-0.6-0.2-1l-0.3-0.5c-0.2-0.3-0.4-0.5-0.7-0.6c-0.3-0.1-0.6-0.1-0.9,0.1L162.1,140z" class="st8"/><path d="M165.7,140.3c-0.2-0.4-0.3-0.8-0.2-1.1c0.1-0.4,0.3-0.6,0.6-0.9c0.4-0.2,0.7-0.2,1.1-0.1 c0.3,0.1,0.6,0.4,0.9,0.8l0,0.1c0.2,0.4,0.3,0.8,0.2,1.1c-0.1,0.4-0.3,0.6-0.6,0.8c-0.4,0.2-0.7,0.2-1.1,0.1 C166.2,141,165.9,140.8,165.7,140.3L165.7,140.3z M166.2,140.1c0.2,0.3,0.3,0.5,0.6,0.6c0.2,0.1,0.4,0.1,0.7,0 c0.2-0.1,0.3-0.3,0.4-0.6c0-0.2-0.1-0.5-0.2-0.8l0-0.1c-0.2-0.3-0.3-0.5-0.6-0.6c-0.2-0.1-0.4-0.1-0.7,0c-0.2,0.1-0.3,0.3-0.4,0.6 C165.9,139.5,166,139.8,166.2,140.1L166.2,140.1z" class="st8"/><path d="M170.1,139.1c0.2-0.1,0.3-0.2,0.3-0.4c0.1-0.2,0.1-0.3,0-0.5l0.4-0.2l0,0c0.1,0.2,0.2,0.5,0,0.8 c-0.1,0.3-0.3,0.5-0.6,0.7c-0.4,0.2-0.7,0.3-1.1,0.1c-0.3-0.1-0.6-0.4-0.8-0.7l-0.1-0.1c-0.2-0.4-0.3-0.7-0.2-1.1s0.3-0.6,0.6-0.9 c0.2-0.1,0.4-0.2,0.6-0.2c0.2,0,0.4,0,0.6,0l0.3,0.6l-0.4,0.2l-0.3-0.3c-0.1,0-0.2,0-0.3,0c-0.1,0-0.2,0.1-0.3,0.1 c-0.2,0.1-0.4,0.3-0.4,0.6c0,0.2,0.1,0.5,0.2,0.7l0.1,0.1c0.2,0.3,0.3,0.5,0.5,0.6C169.7,139.2,169.9,139.2,170.1,139.1z" class="st8"/><path d="M169.8,135.2l-0.2-0.3l0.9-0.5l1.2,2.1l0.3-0.2l0.2-1l-0.3,0.1l-0.2-0.3l1.1-0.6l0.2,0.3l-0.3,0.2l-0.2,1.2 l1.4,0.6l0.3-0.1l0.2,0.3l-1.1,0.6l-0.2-0.3l0.2-0.2l-1.2-0.5l-0.3,0.2l0.5,0.8l0.4-0.2l0.2,0.3l-1.2,0.7l-0.2-0.3l0.3-0.3l-1.7-3 L169.8,135.2z" class="st8"/><path d="M175.9,136.3c-0.4,0.2-0.7,0.3-1.1,0.1s-0.6-0.4-0.9-0.7l-0.1-0.1c-0.2-0.4-0.3-0.7-0.2-1.1 c0.1-0.4,0.3-0.6,0.6-0.8c0.3-0.2,0.7-0.2,1-0.1s0.5,0.3,0.7,0.7l0.2,0.3l-1.7,1l0,0c0.1,0.2,0.3,0.4,0.5,0.5 c0.2,0.1,0.4,0.1,0.6-0.1c0.2-0.1,0.3-0.2,0.4-0.3c0.1-0.1,0.2-0.2,0.2-0.4l0.4,0.2c0,0.1-0.1,0.3-0.2,0.4 C176.3,136,176.1,136.1,175.9,136.3z M174.5,134c-0.2,0.1-0.3,0.2-0.3,0.4s0,0.4,0.1,0.6l0,0l1.2-0.7l0-0.1 c-0.1-0.2-0.2-0.3-0.4-0.4C174.9,133.9,174.7,133.9,174.5,134z" class="st8"/><path d="M176,133.1l-0.2-0.3l0.8-0.5l0.3,0.3c0-0.2,0-0.3,0.1-0.5c0.1-0.1,0.2-0.2,0.3-0.3c0,0,0.1,0,0.1-0.1 c0,0,0.1,0,0.1,0l0.2,0.5l-0.3,0.1c-0.1,0.1-0.2,0.2-0.3,0.3c-0.1,0.1-0.1,0.2-0.1,0.4l0.8,1.5l0.4-0.2l0.2,0.3l-1.2,0.7l-0.2-0.3 l0.3-0.3l-1.1-1.8L176,133.1z" class="st8"/></g><g><path d="M141.1,151.8l-0.2-0.3l0.9-0.5l1.2,2.1l0.3-0.2l0.2-1l-0.3,0.1l-0.2-0.3l1.1-0.6l0.2,0.3l-0.3,0.2l-0.2,1.2 l1.4,0.6l0.3-0.1l0.2,0.3l-1.1,0.6l-0.2-0.3l0.2-0.2l-1.2-0.5l-0.3,0.2l0.5,0.8l0.4-0.2l0.2,0.3l-1.2,0.7l-0.2-0.3l0.3-0.3l-1.7-3 L141.1,151.8z" class="st8"/><path d="M147.6,152c0,0.2,0,0.3-0.1,0.5c-0.1,0.1-0.2,0.3-0.4,0.4c-0.3,0.2-0.5,0.2-0.8,0.1c-0.3-0.1-0.5-0.3-0.7-0.7 l-0.7-1.1l-0.3,0.1l-0.2-0.3l0.3-0.2l0.5-0.3l0.9,1.5c0.2,0.3,0.3,0.4,0.4,0.5s0.3,0,0.5-0.1c0.2-0.1,0.3-0.2,0.4-0.3 c0.1-0.1,0.1-0.3,0.1-0.4l-0.9-1.5l-0.4,0.1L146,150l0.3-0.2l0.5-0.3l1.3,2.2l0.3-0.1l0.2,0.3l-0.7,0.4L147.6,152z" class="st8"/><path d="M150.6,149.2c0.2,0.4,0.3,0.7,0.2,1c0,0.3-0.2,0.6-0.5,0.8c-0.2,0.1-0.3,0.1-0.5,0.2c-0.2,0-0.3,0-0.5-0.1 l0.1,0.4l-0.4,0.2l-1.9-3.3l-0.4,0.2l-0.2-0.3l0.9-0.5l0.8,1.4c0-0.2,0.1-0.3,0.1-0.4c0.1-0.1,0.2-0.2,0.4-0.3 c0.3-0.2,0.6-0.2,1,0S150.4,148.7,150.6,149.2L150.6,149.2z M150.1,149.4c-0.2-0.3-0.4-0.5-0.6-0.6c-0.2-0.1-0.4-0.1-0.7,0 c-0.1,0.1-0.2,0.2-0.3,0.3c-0.1,0.1-0.1,0.3-0.1,0.4l0.7,1.1c0.1,0.1,0.3,0.1,0.4,0.1c0.1,0,0.3,0,0.4-0.1 c0.2-0.1,0.3-0.3,0.4-0.5C150.4,149.9,150.3,149.7,150.1,149.4L150.1,149.4z" class="st8"/><path d="M153,149.5c-0.4,0.2-0.7,0.3-1.1,0.1s-0.6-0.4-0.9-0.7l-0.1-0.1c-0.2-0.4-0.3-0.7-0.2-1.1 c0.1-0.4,0.3-0.6,0.6-0.8c0.3-0.2,0.7-0.2,1-0.1s0.5,0.3,0.7,0.7l0.2,0.3l-1.7,1v0c0.1,0.2,0.3,0.4,0.5,0.5 c0.2,0.1,0.4,0.1,0.6-0.1c0.2-0.1,0.3-0.2,0.4-0.3c0.1-0.1,0.2-0.2,0.2-0.4l0.4,0.2c0,0.1-0.1,0.3-0.2,0.4S153.2,149.3,153,149.5z M151.6,147.2c-0.2,0.1-0.3,0.2-0.3,0.4c0,0.2,0,0.4,0.1,0.6l0,0l1.2-0.7l0-0.1c-0.1-0.2-0.2-0.3-0.4-0.4S151.8,147.1,151.6,147.2 z" class="st8"/><path d="M152.4,145.2l-0.2-0.3l0.9-0.5l1.9,3.3l0.4-0.2l0.2,0.3l-1.2,0.7l-0.2-0.3l0.3-0.3l-1.7-3L152.4,145.2z" class="st8"/><path d="M157.1,147.1c-0.4,0.2-0.7,0.3-1.1,0.1s-0.6-0.4-0.9-0.7l-0.1-0.1c-0.2-0.4-0.3-0.7-0.2-1.1 c0.1-0.4,0.3-0.6,0.6-0.8c0.3-0.2,0.7-0.2,1-0.1s0.5,0.3,0.7,0.7l0.2,0.3l-1.7,1v0c0.1,0.2,0.3,0.4,0.5,0.5 c0.2,0.1,0.4,0.1,0.6-0.1c0.2-0.1,0.3-0.2,0.4-0.3c0.1-0.1,0.2-0.2,0.2-0.4l0.4,0.2c0,0.1-0.1,0.3-0.2,0.4S157.3,147,157.1,147.1z M155.7,144.8c-0.2,0.1-0.3,0.2-0.3,0.4s0,0.4,0.1,0.6l0,0l1.2-0.7l0-0.1c-0.1-0.2-0.2-0.3-0.4-0.4 C156.1,144.7,155.9,144.7,155.7,144.8z" class="st8"/><path d="M157.5,142.6l0.4,0.6l0.5-0.3l0.2,0.3l-0.5,0.3l0.9,1.6c0.1,0.1,0.1,0.2,0.2,0.2c0.1,0,0.2,0,0.2,0 c0,0,0.1-0.1,0.1-0.1c0,0,0.1-0.1,0.1-0.1l0.2,0.3c0,0.1-0.1,0.1-0.2,0.2c-0.1,0.1-0.2,0.1-0.2,0.2c-0.2,0.1-0.4,0.1-0.6,0.1 c-0.2,0-0.3-0.2-0.5-0.4l-0.9-1.6l-0.4,0.2l-0.2-0.3l0.4-0.2l-0.4-0.6L157.5,142.6z" class="st8"/></g><polygon points="225.1 160.4 189.4 139.9 189.4 98.7 225.1 78.2 260.7 98.7 260.7 139.9" class="st16"/><polygon points="189.4 119.3 189.4 139.9 225.1 160.4 242.9 150.2" class="st13"/><polygon points="208.7 147.7 214.8 137.2 237.3 150.2 225.1 157.2" class="st7"/><g><path d="M215.5,142.6c0.5,0.3,0.7,0.6,0.8,1c0.1,0.4,0,0.9-0.2,1.3l-0.3,0.5c-0.3,0.4-0.6,0.7-1,0.8 c-0.4,0.1-0.9,0-1.3-0.2l-1.4-0.8l0.2-0.3l0.4,0.2l1.6-2.7l-0.3-0.3l0.2-0.3l0.4,0.2L215.5,142.6z M214.7,142.6l-1.6,2.7l0.6,0.3 c0.3,0.2,0.6,0.2,0.9,0.1c0.3-0.1,0.6-0.3,0.7-0.6l0.3-0.5c0.2-0.3,0.2-0.6,0.2-1c-0.1-0.3-0.3-0.6-0.6-0.8L214.7,142.6z" class="st8"/><path d="M216.2,145.9c0.2-0.4,0.5-0.6,0.8-0.8c0.3-0.1,0.7-0.1,1,0.1c0.4,0.2,0.6,0.5,0.6,0.9c0.1,0.4,0,0.7-0.2,1.1 l0,0.1c-0.2,0.4-0.5,0.6-0.8,0.8c-0.3,0.1-0.7,0.1-1-0.1c-0.4-0.2-0.6-0.5-0.6-0.9C215.9,146.7,216,146.3,216.2,145.9L216.2,145.9 z M216.7,146.2c-0.2,0.3-0.2,0.5-0.2,0.8c0,0.2,0.1,0.4,0.4,0.6c0.2,0.1,0.4,0.1,0.7,0c0.2-0.1,0.4-0.3,0.6-0.6l0-0.1 c0.2-0.3,0.2-0.5,0.2-0.8c0-0.2-0.1-0.4-0.4-0.6c-0.2-0.1-0.4-0.1-0.7,0C217,145.7,216.8,145.9,216.7,146.2L216.7,146.2z" class="st8"/><path d="M219.5,149.1c0.2,0.1,0.3,0.1,0.5,0.1c0.2,0,0.3-0.1,0.4-0.2l0.4,0.2l0,0c-0.1,0.2-0.3,0.4-0.6,0.4 c-0.3,0.1-0.6,0-0.9-0.2c-0.4-0.2-0.6-0.5-0.6-0.9c-0.1-0.4,0-0.7,0.2-1.1l0.1-0.1c0.2-0.4,0.5-0.6,0.8-0.7s0.7-0.1,1.1,0.1 c0.2,0.1,0.4,0.3,0.5,0.4s0.2,0.3,0.2,0.5l-0.3,0.6l-0.4-0.2l0.1-0.5c0-0.1-0.1-0.2-0.1-0.3c-0.1-0.1-0.2-0.2-0.3-0.2 c-0.2-0.1-0.5-0.2-0.7,0c-0.2,0.1-0.4,0.3-0.5,0.6l-0.1,0.1c-0.2,0.3-0.2,0.5-0.2,0.7C219.2,148.8,219.3,149,219.5,149.1z" class="st8"/><path d="M222.7,146.8l0.2-0.3l0.9,0.5l-1.2,2.1l0.3,0.2l0.9-0.4l-0.2-0.2l0.2-0.3l1.1,0.6l-0.2,0.3l-0.3-0.1l-1.1,0.4 l0.2,1.5l0.3,0.2l-0.2,0.3l-1.1-0.6l0.2-0.3l0.3,0.1l-0.2-1.2l-0.3-0.2l-0.5,0.8l0.3,0.3l-0.2,0.3l-1.2-0.7l0.2-0.3l0.4,0.2l1.7-3 L222.7,146.8z" class="st8"/><path d="M224.8,152.7c-0.4-0.2-0.6-0.5-0.6-0.8s0-0.7,0.2-1.1l0.1-0.1c0.2-0.4,0.5-0.6,0.9-0.7s0.7-0.1,1,0.1 c0.3,0.2,0.5,0.5,0.6,0.8c0.1,0.3,0,0.6-0.2,1l-0.2,0.3l-1.7-1l0,0c-0.1,0.2-0.2,0.5-0.2,0.7c0,0.2,0.2,0.4,0.4,0.5 c0.2,0.1,0.3,0.1,0.5,0.2c0.1,0,0.3,0,0.4,0l0,0.4c-0.1,0-0.3,0-0.5,0S225.1,152.8,224.8,152.7z M226.1,150.3 c-0.2-0.1-0.3-0.1-0.5,0c-0.2,0.1-0.4,0.2-0.5,0.4l0,0l1.2,0.7l0-0.1c0.1-0.2,0.1-0.4,0.1-0.5 C226.4,150.6,226.3,150.4,226.1,150.3z" class="st8"/><path d="M227.6,151.2l0.2-0.3l0.8,0.5l-0.2,0.4c0.1-0.1,0.3-0.1,0.4-0.2c0.1,0,0.3,0,0.4,0.1c0,0,0.1,0,0.1,0.1 c0,0,0.1,0.1,0.1,0.1l-0.3,0.4l-0.3-0.2c-0.1-0.1-0.2-0.1-0.4-0.1c-0.1,0-0.2,0.1-0.3,0.1l-0.8,1.5l0.3,0.3l-0.2,0.3l-1.2-0.7 l0.2-0.3l0.4,0.2l1.1-1.8L227.6,151.2z" class="st8"/></g><g><path d="M194,130.3l0.2-0.3l0.9,0.5l-1.2,2.1l0.3,0.2l0.9-0.4l-0.2-0.2l0.2-0.3l1.1,0.6l-0.2,0.3l-0.3-0.1l-1.1,0.4 l0.2,1.5l0.3,0.2l-0.2,0.3l-1.1-0.6l0.2-0.3l0.3,0.1l-0.2-1.2l-0.3-0.2l-0.5,0.8l0.3,0.3l-0.2,0.3l-1.2-0.7l0.2-0.3l0.4,0.2l1.7-3 L194,130.3z" class="st8"/><path d="M197.1,136.1c-0.2,0.1-0.3,0.1-0.5,0.1c-0.2,0-0.3,0-0.5-0.1c-0.3-0.2-0.4-0.4-0.5-0.6c-0.1-0.3,0-0.6,0.2-1 l0.7-1.1l-0.3-0.2l0.2-0.3l0.3,0.2l0.5,0.3l-0.9,1.5c-0.2,0.3-0.2,0.5-0.2,0.6c0,0.1,0.1,0.3,0.3,0.4c0.2,0.1,0.3,0.1,0.5,0.1 c0.1,0,0.3-0.1,0.4-0.1l0.9-1.5l-0.3-0.3l0.2-0.3l0.3,0.2l0.5,0.3l-1.3,2.2l0.3,0.2l-0.2,0.3l-0.7-0.4L197.1,136.1z" class="st8"/><path d="M201,137.3c-0.2,0.4-0.5,0.6-0.8,0.7s-0.6,0.1-0.9-0.1c-0.2-0.1-0.3-0.2-0.4-0.3c-0.1-0.1-0.1-0.3-0.1-0.5 l-0.2,0.3l-0.4-0.2l1.9-3.3l-0.3-0.3l0.2-0.3l0.9,0.5l-0.8,1.4c0.1-0.1,0.3-0.1,0.5-0.1s0.3,0.1,0.5,0.2c0.3,0.2,0.5,0.5,0.5,0.8 S201.3,136.8,201,137.3L201,137.3z M200.6,136.9c0.2-0.3,0.3-0.6,0.3-0.8c0-0.2-0.1-0.4-0.3-0.6c-0.1-0.1-0.3-0.1-0.4-0.1 c-0.1,0-0.3,0.1-0.4,0.1l-0.7,1.1c0,0.2,0,0.3,0.1,0.4c0.1,0.1,0.2,0.2,0.3,0.3c0.2,0.1,0.4,0.1,0.6,0 C200.2,137.4,200.4,137.2,200.6,136.9L200.6,136.9z" class="st8"/><path d="M202,139.4c-0.4-0.2-0.6-0.5-0.6-0.8c-0.1-0.4,0-0.7,0.2-1.1l0.1-0.1c0.2-0.4,0.5-0.6,0.9-0.7 c0.4-0.1,0.7-0.1,1,0.1c0.3,0.2,0.5,0.5,0.6,0.8c0.1,0.3,0,0.6-0.2,1l-0.2,0.3l-1.7-1l0,0c-0.1,0.2-0.2,0.5-0.2,0.7 c0,0.2,0.2,0.4,0.4,0.5c0.2,0.1,0.3,0.1,0.5,0.2c0.1,0,0.3,0,0.4,0l0,0.4c-0.1,0-0.3,0-0.5,0C202.4,139.6,202.2,139.6,202,139.4z M203.2,137.1c-0.2-0.1-0.3-0.1-0.5,0c-0.2,0.1-0.3,0.2-0.5,0.4l0,0l1.2,0.7l0-0.1c0.1-0.2,0.1-0.4,0.1-0.5 C203.5,137.4,203.4,137.2,203.2,137.1z" class="st8"/><path d="M205.3,136.8l0.2-0.3l0.9,0.5l-1.9,3.3l0.3,0.3l-0.2,0.3l-1.2-0.7l0.2-0.3l0.4,0.2l1.7-3L205.3,136.8z" class="st8"/><path d="M206.1,141.8c-0.4-0.2-0.6-0.5-0.6-0.8c-0.1-0.4,0-0.7,0.2-1.1l0.1-0.1c0.2-0.4,0.5-0.6,0.9-0.7 c0.4-0.1,0.7-0.1,1,0.1c0.3,0.2,0.5,0.5,0.6,0.8c0.1,0.3,0,0.6-0.2,1l-0.2,0.3l-1.7-1l0,0c-0.1,0.2-0.2,0.5-0.2,0.7 c0,0.2,0.2,0.4,0.4,0.5c0.2,0.1,0.3,0.1,0.5,0.2c0.1,0,0.3,0,0.4,0l0,0.4c-0.1,0-0.3,0-0.5,0C206.5,142,206.3,141.9,206.1,141.8z M207.3,139.5c-0.2-0.1-0.3-0.1-0.5,0c-0.2,0.1-0.3,0.2-0.5,0.4l0,0l1.2,0.7l0-0.1c0.1-0.2,0.1-0.4,0.1-0.5 C207.6,139.7,207.5,139.6,207.3,139.5z" class="st8"/><path d="M210.2,139.9l-0.4,0.6l0.5,0.3l-0.2,0.3l-0.5-0.3l-0.9,1.6c-0.1,0.1-0.1,0.2-0.1,0.3c0,0.1,0.1,0.1,0.2,0.2 c0,0,0.1,0,0.1,0.1c0.1,0,0.1,0,0.1,0.1l-0.1,0.4c-0.1,0-0.1,0-0.2,0c-0.1,0-0.2-0.1-0.3-0.1c-0.2-0.1-0.3-0.3-0.4-0.4 c0-0.2,0-0.4,0.1-0.6l0.9-1.6l-0.4-0.2l0.2-0.3l0.4,0.2l0.4-0.6L210.2,139.9z" class="st8"/></g><polygon points="147.1 296.4 111.4 275.9 111.4 234.7 147.1 214.1 182.7 234.7 182.7 275.9" class="st16"/><polygon points="129.3 224.4 147.1 214.1 182.7 234.7 182.7 255.3" class="st13"/><polygon points="163.5 226.9 157.4 237.4 179.9 250.4 179.9 236.3" class="st7"/><g><path d="M164.2,232.3c0.5,0.3,0.7,0.6,0.8,1c0.1,0.4,0,0.9-0.2,1.3l-0.3,0.5c-0.3,0.4-0.6,0.7-1,0.8 c-0.4,0.1-0.9,0-1.3-0.2l-1.4-0.8l0.2-0.3l0.4,0.2l1.6-2.7l-0.3-0.3l0.2-0.3l0.4,0.2L164.2,232.3z M163.4,232.3l-1.6,2.7l0.6,0.3 c0.3,0.2,0.6,0.2,0.9,0.1c0.3-0.1,0.6-0.3,0.7-0.6l0.3-0.5c0.2-0.3,0.3-0.6,0.2-1c-0.1-0.3-0.3-0.6-0.6-0.8L163.4,232.3z" class="st8"/><path d="M164.9,235.6c0.2-0.4,0.5-0.6,0.8-0.8c0.3-0.1,0.7-0.1,1,0.1c0.4,0.2,0.6,0.5,0.6,0.9c0.1,0.4,0,0.7-0.2,1.1 l0,0.1c-0.2,0.4-0.5,0.6-0.8,0.8c-0.3,0.1-0.7,0.1-1-0.1c-0.4-0.2-0.6-0.5-0.6-0.9C164.6,236.4,164.7,236,164.9,235.6L164.9,235.6 z M165.4,235.9c-0.2,0.3-0.2,0.5-0.2,0.8c0,0.2,0.1,0.4,0.4,0.6c0.2,0.1,0.4,0.1,0.7,0c0.2-0.1,0.4-0.3,0.6-0.6l0-0.1 c0.2-0.3,0.2-0.5,0.2-0.8c0-0.2-0.1-0.4-0.4-0.6c-0.2-0.1-0.4-0.1-0.7,0C165.8,235.4,165.6,235.6,165.4,235.9L165.4,235.9z" class="st8"/><path d="M168.2,238.8c0.2,0.1,0.3,0.1,0.5,0.1c0.2,0,0.3-0.1,0.4-0.2l0.4,0.2l0,0c-0.1,0.2-0.3,0.4-0.6,0.4 c-0.3,0.1-0.6,0-0.9-0.2c-0.4-0.2-0.6-0.5-0.6-0.9c-0.1-0.4,0-0.7,0.2-1.1l0.1-0.1c0.2-0.4,0.5-0.6,0.8-0.7 c0.3-0.1,0.7-0.1,1.1,0.1c0.2,0.1,0.4,0.3,0.5,0.4s0.2,0.3,0.2,0.5L170,238l-0.4-0.2l0.1-0.5c0-0.1-0.1-0.2-0.1-0.3 c-0.1-0.1-0.2-0.2-0.3-0.2c-0.2-0.1-0.5-0.2-0.7,0c-0.2,0.1-0.4,0.3-0.5,0.6l-0.1,0.1c-0.2,0.3-0.2,0.5-0.2,0.7 C167.9,238.5,168,238.7,168.2,238.8z" class="st8"/><path d="M171.4,236.5l0.2-0.3l0.9,0.5l-1.2,2.1l0.3,0.2l0.9-0.4l-0.2-0.2l0.2-0.3l1.1,0.6l-0.2,0.3L173,239l-1.1,0.4 l0.2,1.5l0.3,0.2l-0.2,0.3l-1.1-0.6l0.2-0.3l0.3,0.1l-0.2-1.2l-0.3-0.2l-0.5,0.8l0.3,0.3l-0.2,0.3l-1.2-0.7l0.2-0.3l0.4,0.2l1.7-3 L171.4,236.5z" class="st8"/><path d="M173.6,242.4c-0.4-0.2-0.6-0.5-0.6-0.8c-0.1-0.4,0-0.7,0.2-1.1l0.1-0.1c0.2-0.4,0.5-0.6,0.9-0.7 c0.4-0.1,0.7-0.1,1,0.1c0.3,0.2,0.5,0.5,0.6,0.8c0.1,0.3,0,0.6-0.2,1l-0.2,0.3l-1.7-1l0,0c-0.1,0.2-0.2,0.5-0.2,0.7 c0,0.2,0.2,0.4,0.4,0.5c0.2,0.1,0.3,0.1,0.5,0.2s0.3,0,0.4,0l0,0.4c-0.1,0-0.3,0-0.5,0C174,242.6,173.8,242.5,173.6,242.4z M174.8,240c-0.2-0.1-0.3-0.1-0.5,0c-0.2,0.1-0.4,0.2-0.5,0.4l0,0l1.2,0.7l0-0.1c0.1-0.2,0.1-0.4,0.1-0.5 C175.1,240.3,175,240.1,174.8,240z" class="st8"/><path d="M176.3,240.9l0.2-0.3l0.8,0.5l-0.2,0.4c0.1-0.1,0.3-0.1,0.4-0.2c0.2,0,0.3,0,0.4,0.1c0,0,0.1,0,0.1,0.1 c0,0,0.1,0.1,0.1,0.1l-0.3,0.4l-0.3-0.2c-0.1-0.1-0.2-0.1-0.4-0.1c-0.1,0-0.2,0.1-0.3,0.1l-0.8,1.5l0.3,0.3l-0.2,0.3l-1.2-0.7 l0.2-0.3l0.4,0.2l1.1-1.8L176.3,240.9z" class="st8"/></g><g><path d="M142.7,220l0.2-0.3l0.9,0.5l-1.2,2.1l0.3,0.2l0.9-0.4l-0.2-0.2l0.2-0.3l1.1,0.6l-0.2,0.3l-0.3-0.1l-1.1,0.4 l0.2,1.5l0.3,0.2l-0.2,0.3l-1.1-0.6l0.2-0.3l0.3,0.1l-0.2-1.2l-0.3-0.2l-0.5,0.8l0.3,0.3l-0.2,0.3l-1.2-0.7l0.2-0.3l0.4,0.2l1.7-3 L142.7,220z" class="st8"/><path d="M145.8,225.8c-0.2,0.1-0.3,0.1-0.5,0.1s-0.3,0-0.5-0.1c-0.3-0.2-0.4-0.4-0.5-0.6s0-0.6,0.2-1l0.7-1.1 l-0.3-0.2l0.2-0.3l0.3,0.2l0.5,0.3l-0.9,1.5c-0.2,0.3-0.2,0.5-0.2,0.6s0.1,0.3,0.3,0.4c0.2,0.1,0.3,0.1,0.5,0.1 c0.1,0,0.3-0.1,0.4-0.1l0.9-1.5l-0.3-0.3l0.2-0.3l0.3,0.2l0.5,0.3l-1.3,2.2l0.3,0.2l-0.2,0.3l-0.7-0.4L145.8,225.8z" class="st8"/><path d="M149.8,227c-0.2,0.4-0.5,0.6-0.8,0.7c-0.3,0.1-0.6,0.1-0.9-0.1c-0.2-0.1-0.3-0.2-0.4-0.3 c-0.1-0.1-0.1-0.3-0.1-0.5l-0.2,0.3l-0.4-0.2l1.9-3.3l-0.3-0.3l0.2-0.3l0.9,0.5l-0.8,1.4c0.1-0.1,0.3-0.1,0.5-0.1 c0.2,0,0.3,0.1,0.5,0.2c0.3,0.2,0.5,0.5,0.5,0.8C150.1,226.1,150,226.5,149.8,227L149.8,227z M149.3,226.6 c0.2-0.3,0.3-0.6,0.3-0.8c0-0.2-0.1-0.4-0.3-0.6c-0.1-0.1-0.3-0.1-0.4-0.1c-0.1,0-0.3,0.1-0.4,0.1l-0.7,1.1c0,0.2,0,0.3,0.1,0.4 s0.2,0.2,0.3,0.3c0.2,0.1,0.4,0.1,0.6,0C149,227.1,149.1,227,149.3,226.6L149.3,226.6z" class="st8"/><path d="M150.7,229.1c-0.4-0.2-0.6-0.5-0.6-0.8c-0.1-0.4,0-0.7,0.2-1.1l0.1-0.1c0.2-0.4,0.5-0.6,0.9-0.7 c0.4-0.1,0.7-0.1,1,0.1c0.3,0.2,0.5,0.5,0.6,0.8s0,0.6-0.2,1l-0.2,0.3l-1.7-1l0,0c-0.1,0.2-0.2,0.5-0.2,0.7s0.2,0.4,0.4,0.5 c0.2,0.1,0.3,0.1,0.5,0.2c0.1,0,0.3,0,0.4,0l0,0.4c-0.1,0-0.3,0-0.5,0C151.1,229.3,150.9,229.3,150.7,229.1z M151.9,226.8 c-0.2-0.1-0.3-0.1-0.5,0c-0.2,0.1-0.4,0.2-0.5,0.4l0,0l1.2,0.7l0-0.1c0.1-0.2,0.1-0.4,0.1-0.5 C152.2,227.1,152.1,226.9,151.9,226.8z" class="st8"/><path d="M154,226.5l0.2-0.3l0.9,0.5l-1.9,3.3l0.3,0.3l-0.2,0.3l-1.2-0.7l0.2-0.3l0.4,0.2l1.7-3L154,226.5z" class="st8"/><path d="M154.8,231.5c-0.4-0.2-0.6-0.5-0.6-0.8c-0.1-0.4,0-0.7,0.2-1.1l0.1-0.1c0.2-0.4,0.5-0.6,0.9-0.7 c0.4-0.1,0.7-0.1,1,0.1c0.3,0.2,0.5,0.5,0.6,0.8s0,0.6-0.2,1l-0.2,0.3l-1.7-1l0,0c-0.1,0.2-0.2,0.5-0.2,0.7s0.2,0.4,0.4,0.5 c0.2,0.1,0.3,0.1,0.5,0.2c0.1,0,0.3,0,0.4,0l0,0.4c-0.1,0-0.3,0-0.5,0C155.2,231.7,155,231.7,154.8,231.5z M156.1,229.2 c-0.2-0.1-0.3-0.1-0.5,0c-0.2,0.1-0.4,0.2-0.5,0.4l0,0l1.2,0.7l0-0.1c0.1-0.2,0.1-0.4,0.1-0.5 C156.4,229.5,156.3,229.3,156.1,229.2z" class="st8"/><path d="M158.9,229.6l-0.4,0.6l0.5,0.3l-0.2,0.3l-0.5-0.3l-0.9,1.6c-0.1,0.1-0.1,0.2-0.1,0.3c0,0.1,0.1,0.1,0.2,0.2 c0,0,0.1,0,0.1,0.1c0.1,0,0.1,0,0.1,0.1l-0.1,0.4c-0.1,0-0.1,0-0.2,0c-0.1,0-0.2-0.1-0.3-0.1c-0.2-0.1-0.3-0.3-0.4-0.4 c0-0.2,0-0.4,0.1-0.6l0.9-1.6l-0.4-0.2l0.2-0.3l0.4,0.2l0.4-0.6L158.9,229.6z" class="st8"/></g></g><g id="description"><g><path d="M374.4,188.6L374.4,188.6l-2.8,6.8h-0.8l-2.8-6.8l0,0l0.1,3.5v2.5l1,0.2v0.7h-3.1v-0.7l1-0.2v-6.7l-1-0.2 v-0.7h1h1.5l2.7,6.9h0l2.7-6.9h2.4v0.7l-1,0.2v6.7l1,0.2v0.7h-3.1v-0.7l1-0.2V192L374.4,188.6z" class="st42"/><path d="M381.5,195.4c0-0.2-0.1-0.3-0.1-0.5s0-0.3,0-0.4c-0.2,0.3-0.5,0.5-0.8,0.7s-0.7,0.3-1.1,0.3 c-0.7,0-1.2-0.2-1.5-0.5s-0.5-0.8-0.5-1.4c0-0.6,0.2-1.1,0.7-1.4s1.2-0.5,2-0.5h1.2v-0.7c0-0.4-0.1-0.7-0.4-0.9s-0.6-0.3-1-0.3 c-0.3,0-0.5,0-0.8,0.1s-0.4,0.2-0.5,0.3l-0.1,0.7h-0.9v-1.2c0.3-0.2,0.6-0.4,1-0.6s0.9-0.2,1.3-0.2c0.7,0,1.3,0.2,1.7,0.6 s0.7,0.9,0.7,1.6v3.1c0,0.1,0,0.2,0,0.2s0,0.2,0,0.2l0.5,0.1v0.7H381.5z M379.6,194.6c0.4,0,0.7-0.1,1-0.3s0.5-0.4,0.7-0.7v-1 h-1.2c-0.5,0-0.8,0.1-1.1,0.3s-0.4,0.5-0.4,0.8c0,0.3,0.1,0.5,0.3,0.6S379.3,194.6,379.6,194.6z" class="st42"/><path d="M388.8,191.1h-0.9l-0.2-0.8c-0.1-0.1-0.3-0.2-0.5-0.3s-0.5-0.1-0.7-0.1c-0.4,0-0.7,0.1-0.9,0.3 s-0.3,0.4-0.3,0.7c0,0.2,0.1,0.4,0.3,0.6s0.5,0.3,1.1,0.4c0.8,0.2,1.4,0.4,1.8,0.7s0.6,0.7,0.6,1.2c0,0.6-0.2,1-0.7,1.4 s-1,0.5-1.8,0.5c-0.5,0-0.9-0.1-1.3-0.2s-0.7-0.3-1-0.5l0-1.4h0.9l0.2,0.8c0.1,0.1,0.3,0.2,0.5,0.3s0.5,0.1,0.7,0.1 c0.4,0,0.7-0.1,1-0.2s0.3-0.4,0.3-0.7c0-0.3-0.1-0.5-0.3-0.6s-0.6-0.3-1.1-0.4c-0.8-0.2-1.3-0.4-1.7-0.7s-0.6-0.7-0.6-1.2 c0-0.5,0.2-1,0.7-1.3s1-0.5,1.7-0.5c0.5,0,0.9,0.1,1.3,0.2s0.7,0.3,1,0.5L388.8,191.1z" class="st42"/><path d="M392.1,187.5v1.5h1.2v0.9h-1.2v3.8c0,0.3,0.1,0.5,0.2,0.6s0.3,0.2,0.5,0.2c0.1,0,0.2,0,0.3,0s0.2,0,0.3-0.1 l0.2,0.8c-0.1,0.1-0.3,0.1-0.5,0.2s-0.4,0.1-0.6,0.1c-0.5,0-0.8-0.1-1.1-0.4s-0.4-0.7-0.4-1.3v-3.8h-1v-0.9h1v-1.5H392.1z" class="st42"/><path d="M397.4,195.5c-0.9,0-1.6-0.3-2.1-0.9s-0.8-1.4-0.8-2.3v-0.3c0-0.9,0.3-1.7,0.8-2.3s1.2-0.9,1.9-0.9 c0.9,0,1.5,0.3,1.9,0.8s0.7,1.2,0.7,2.1v0.7h-4.1l0,0c0,0.6,0.2,1.1,0.5,1.5s0.7,0.6,1.2,0.6c0.4,0,0.7-0.1,1-0.2s0.5-0.3,0.8-0.5 l0.5,0.8c-0.2,0.2-0.5,0.4-0.9,0.6S397.9,195.5,397.4,195.5z M397.2,189.9c-0.4,0-0.7,0.2-1,0.5s-0.4,0.7-0.5,1.2l0,0h2.9v-0.2 c0-0.5-0.1-0.8-0.4-1.1S397.7,189.9,397.2,189.9z" class="st42"/><path d="M400.9,189.8v-0.7h2l0.1,0.9c0.2-0.3,0.4-0.6,0.7-0.8s0.6-0.3,0.9-0.3c0.1,0,0.2,0,0.3,0s0.2,0,0.2,0 l-0.2,1.1l-0.7,0c-0.3,0-0.6,0.1-0.8,0.2s-0.4,0.3-0.5,0.6v3.6l1,0.2v0.7h-3.1v-0.7l1-0.2V190L400.9,189.8z" class="st42"/></g><g><path d="M366,230.1l1-0.2v-4.5l-1-0.2v-0.7h2l0.1,0.9c0.2-0.3,0.5-0.6,0.8-0.8s0.7-0.3,1.1-0.3 c0.7,0,1.2,0.2,1.6,0.6s0.6,1,0.6,1.9v3.1l1,0.2v0.7H370v-0.7l1-0.2v-3.1c0-0.6-0.1-1-0.3-1.2s-0.6-0.4-1-0.4 c-0.3,0-0.6,0.1-0.9,0.2s-0.5,0.4-0.6,0.7v3.7l1,0.2v0.7H366V230.1z" class="st42"/><path d="M373.9,227.6c0-0.9,0.3-1.7,0.8-2.3s1.2-0.9,2.1-0.9c0.9,0,1.6,0.3,2.1,0.9s0.8,1.4,0.8,2.3v0.1 c0,0.9-0.3,1.7-0.8,2.3s-1.2,0.9-2.1,0.9c-0.9,0-1.6-0.3-2.1-0.9s-0.8-1.4-0.8-2.3V227.6z M375,227.7c0,0.7,0.1,1.2,0.4,1.7 s0.7,0.7,1.3,0.7c0.5,0,1-0.2,1.2-0.7s0.4-1,0.4-1.7v-0.1c0-0.7-0.1-1.2-0.4-1.7s-0.7-0.7-1.3-0.7s-1,0.2-1.3,0.7s-0.4,1-0.4,1.7 V227.7z" class="st42"/><path d="M384.9,230c-0.2,0.3-0.5,0.5-0.8,0.7s-0.6,0.2-1,0.2c-0.8,0-1.4-0.3-1.8-0.8s-0.7-1.3-0.7-2.2v-0.1 c0-1,0.2-1.8,0.7-2.5s1-0.9,1.8-0.9c0.4,0,0.7,0.1,1,0.2s0.5,0.3,0.7,0.6v-2.6l-1-0.2v-0.7h1h1.2v8.2l1,0.2v0.7h-2L384.9,230z M381.7,227.9c0,0.6,0.1,1.1,0.4,1.5s0.7,0.6,1.2,0.6c0.3,0,0.6-0.1,0.9-0.2s0.4-0.4,0.6-0.7v-2.9c-0.1-0.3-0.3-0.5-0.6-0.6 s-0.5-0.2-0.9-0.2c-0.6,0-1,0.2-1.2,0.7s-0.4,1.1-0.4,1.8V227.9z" class="st42"/><path d="M390.7,230.9c-0.9,0-1.6-0.3-2.1-0.9s-0.8-1.4-0.8-2.3v-0.3c0-0.9,0.3-1.7,0.8-2.3s1.2-0.9,1.9-0.9 c0.9,0,1.5,0.3,1.9,0.8s0.7,1.2,0.7,2.1v0.7H389l0,0c0,0.6,0.2,1.1,0.5,1.5s0.7,0.6,1.2,0.6c0.4,0,0.7-0.1,1-0.2s0.5-0.3,0.8-0.5 l0.5,0.8c-0.2,0.2-0.5,0.4-0.9,0.6S391.2,230.9,390.7,230.9z M390.5,225.3c-0.4,0-0.7,0.2-1,0.5s-0.4,0.7-0.5,1.2l0,0h2.9v-0.2 c0-0.5-0.1-0.8-0.4-1.1S391,225.3,390.5,225.3z" class="st42"/><path d="M397.1,232.5l1-0.2v-7l-1-0.2v-0.7h1.9l0.1,0.8c0.2-0.3,0.5-0.5,0.8-0.7s0.7-0.2,1.1-0.2 c0.8,0,1.4,0.3,1.8,0.9s0.7,1.4,0.7,2.5v0.1c0,0.9-0.2,1.7-0.7,2.2s-1,0.8-1.8,0.8c-0.4,0-0.7-0.1-1-0.2s-0.5-0.3-0.8-0.6v2.2 l1,0.2v0.7h-3.1V232.5z M402.3,227.7c0-0.7-0.1-1.3-0.4-1.8s-0.7-0.7-1.3-0.7c-0.3,0-0.6,0.1-0.8,0.2s-0.4,0.4-0.6,0.6v3.1 c0.1,0.3,0.3,0.5,0.6,0.6s0.5,0.2,0.9,0.2c0.5,0,1-0.2,1.2-0.6s0.4-0.9,0.4-1.6V227.7z" class="st42"/><path d="M404.5,225.2v-0.7h2l0.1,0.9c0.2-0.3,0.4-0.6,0.7-0.8s0.6-0.3,0.9-0.3c0.1,0,0.2,0,0.3,0s0.2,0,0.2,0 l-0.2,1.1l-0.7,0c-0.3,0-0.6,0.1-0.8,0.2s-0.4,0.3-0.5,0.6v3.6l1,0.2v0.7h-3.1v-0.7l1-0.2v-4.5L404.5,225.2z" class="st42"/><path d="M409.3,227.6c0-0.9,0.3-1.7,0.8-2.3s1.2-0.9,2.1-0.9c0.9,0,1.6,0.3,2.1,0.9s0.8,1.4,0.8,2.3v0.1 c0,0.9-0.3,1.7-0.8,2.3s-1.2,0.9-2.1,0.9c-0.9,0-1.6-0.3-2.1-0.9s-0.8-1.4-0.8-2.3V227.6z M410.5,227.7c0,0.7,0.1,1.2,0.4,1.7 s0.7,0.7,1.3,0.7c0.5,0,1-0.2,1.2-0.7s0.4-1,0.4-1.7v-0.1c0-0.7-0.1-1.2-0.4-1.7s-0.7-0.7-1.3-0.7s-1,0.2-1.3,0.7s-0.4,1-0.4,1.7 V227.7z" class="st42"/><path d="M418.9,230c0.4,0,0.7-0.1,1-0.4s0.4-0.5,0.4-0.9h1l0,0c0,0.5-0.2,1-0.7,1.5s-1.1,0.6-1.8,0.6 c-0.9,0-1.6-0.3-2.1-0.9s-0.7-1.4-0.7-2.3v-0.2c0-0.9,0.2-1.7,0.7-2.3s1.2-0.9,2.1-0.9c0.5,0,1,0.1,1.4,0.3s0.7,0.4,1,0.7l0.1,1.4 h-0.9l-0.3-1c-0.1-0.1-0.3-0.2-0.5-0.3s-0.5-0.1-0.7-0.1c-0.6,0-1,0.2-1.3,0.7s-0.4,1-0.4,1.6v0.2c0,0.6,0.1,1.2,0.4,1.6 S418.3,230,418.9,230z" class="st42"/><path d="M425.4,230.9c-0.9,0-1.6-0.3-2.1-0.9s-0.8-1.4-0.8-2.3v-0.3c0-0.9,0.3-1.7,0.8-2.3s1.2-0.9,1.9-0.9 c0.9,0,1.5,0.3,1.9,0.8s0.7,1.2,0.7,2.1v0.7h-4.1l0,0c0,0.6,0.2,1.1,0.5,1.5s0.7,0.6,1.2,0.6c0.4,0,0.7-0.1,1-0.2s0.5-0.3,0.8-0.5 l0.5,0.8c-0.2,0.2-0.5,0.4-0.9,0.6S426,230.9,425.4,230.9z M425.3,225.3c-0.4,0-0.7,0.2-1,0.5s-0.4,0.7-0.5,1.2l0,0h2.9v-0.2 c0-0.5-0.1-0.8-0.4-1.1S425.7,225.3,425.3,225.3z" class="st42"/><path d="M433.8,226.5H433l-0.2-0.8c-0.1-0.1-0.3-0.2-0.5-0.3s-0.5-0.1-0.7-0.1c-0.4,0-0.7,0.1-0.9,0.3 s-0.3,0.4-0.3,0.7c0,0.2,0.1,0.4,0.3,0.6s0.5,0.3,1.1,0.4c0.8,0.2,1.4,0.4,1.8,0.7s0.6,0.7,0.6,1.2c0,0.6-0.2,1-0.7,1.4 s-1,0.5-1.8,0.5c-0.5,0-0.9-0.1-1.3-0.2s-0.7-0.3-1-0.5l0-1.4h0.9l0.2,0.8c0.1,0.1,0.3,0.2,0.5,0.3s0.5,0.1,0.7,0.1 c0.4,0,0.7-0.1,1-0.2s0.3-0.4,0.3-0.7c0-0.3-0.1-0.5-0.3-0.6s-0.6-0.3-1.1-0.4c-0.8-0.2-1.3-0.4-1.7-0.7s-0.6-0.7-0.6-1.2 c0-0.5,0.2-1,0.7-1.3s1-0.5,1.7-0.5c0.5,0,0.9,0.1,1.3,0.2s0.7,0.3,1,0.5L433.8,226.5z" class="st42"/><path d="M440,226.5h-0.9l-0.2-0.8c-0.1-0.1-0.3-0.2-0.5-0.3s-0.5-0.1-0.7-0.1c-0.4,0-0.7,0.1-0.9,0.3 s-0.3,0.4-0.3,0.7c0,0.2,0.1,0.4,0.3,0.6s0.5,0.3,1.1,0.4c0.8,0.2,1.4,0.4,1.8,0.7s0.6,0.7,0.6,1.2c0,0.6-0.2,1-0.7,1.4 s-1,0.5-1.8,0.5c-0.5,0-0.9-0.1-1.3-0.2s-0.7-0.3-1-0.5l0-1.4h0.9l0.2,0.8c0.1,0.1,0.3,0.2,0.5,0.3s0.5,0.1,0.7,0.1 c0.4,0,0.7-0.1,1-0.2s0.3-0.4,0.3-0.7c0-0.3-0.1-0.5-0.3-0.6s-0.6-0.3-1.1-0.4c-0.8-0.2-1.3-0.4-1.7-0.7s-0.6-0.7-0.6-1.2 c0-0.5,0.2-1,0.7-1.3s1-0.5,1.7-0.5c0.5,0,0.9,0.1,1.3,0.2s0.7,0.3,1,0.5L440,226.5z" class="st42"/><path d="M444.1,230.9c-0.9,0-1.6-0.3-2.1-0.9s-0.8-1.4-0.8-2.3v-0.3c0-0.9,0.3-1.7,0.8-2.3s1.2-0.9,1.9-0.9 c0.9,0,1.5,0.3,1.9,0.8s0.7,1.2,0.7,2.1v0.7h-4.1l0,0c0,0.6,0.2,1.1,0.5,1.5s0.7,0.6,1.2,0.6c0.4,0,0.7-0.1,1-0.2s0.5-0.3,0.8-0.5 l0.5,0.8c-0.2,0.2-0.5,0.4-0.9,0.6S444.6,230.9,444.1,230.9z M443.9,225.3c-0.4,0-0.7,0.2-1,0.5s-0.4,0.7-0.5,1.2l0,0h2.9v-0.2 c0-0.5-0.1-0.8-0.4-1.1S444.4,225.3,443.9,225.3z" class="st42"/><path d="M452.5,226.5h-0.9l-0.2-0.8c-0.1-0.1-0.3-0.2-0.5-0.3s-0.5-0.1-0.7-0.1c-0.4,0-0.7,0.1-0.9,0.3 s-0.3,0.4-0.3,0.7c0,0.2,0.1,0.4,0.3,0.6s0.5,0.3,1.1,0.4c0.8,0.2,1.4,0.4,1.8,0.7s0.6,0.7,0.6,1.2c0,0.6-0.2,1-0.7,1.4 s-1,0.5-1.8,0.5c-0.5,0-0.9-0.1-1.3-0.2s-0.7-0.3-1-0.5l0-1.4h0.9l0.2,0.8c0.1,0.1,0.3,0.2,0.5,0.3s0.5,0.1,0.7,0.1 c0.4,0,0.7-0.1,1-0.2s0.3-0.4,0.3-0.7c0-0.3-0.1-0.5-0.3-0.6s-0.6-0.3-1.1-0.4c-0.8-0.2-1.3-0.4-1.7-0.7s-0.6-0.7-0.6-1.2 c0-0.5,0.2-1,0.7-1.3s1-0.5,1.7-0.5c0.5,0,0.9,0.1,1.3,0.2s0.7,0.3,1,0.5L452.5,226.5z" class="st42"/></g><g><path d="M374.4,111.8v0.7l-1,0.2v7.6h-1.2l-4.1-6.6l0,0v5.7l1,0.2v0.7h-3.1v-0.7l1-0.2v-6.7l-1-0.2v-0.7h1h1.2 l4.1,6.6l0,0v-5.7l-1-0.2v-0.7h2.1H374.4z" class="st42"/><path d="M375.3,117.1c0-0.9,0.3-1.7,0.8-2.3s1.2-0.9,2.1-0.9c0.9,0,1.6,0.3,2.1,0.9s0.8,1.4,0.8,2.3v0.1 c0,0.9-0.3,1.7-0.8,2.3s-1.2,0.9-2.1,0.9c-0.9,0-1.6-0.3-2.1-0.9s-0.8-1.4-0.8-2.3V117.1z M376.5,117.2c0,0.7,0.1,1.2,0.4,1.7 s0.7,0.7,1.3,0.7c0.5,0,1-0.2,1.2-0.7s0.4-1,0.4-1.7v-0.1c0-0.7-0.1-1.2-0.4-1.7s-0.7-0.7-1.3-0.7s-1,0.2-1.3,0.7s-0.4,1-0.4,1.7 V117.2z" class="st42"/><path d="M386.3,119.5c-0.2,0.3-0.5,0.5-0.8,0.7s-0.6,0.2-1,0.2c-0.8,0-1.4-0.3-1.8-0.8s-0.7-1.3-0.7-2.2v-0.1 c0-1,0.2-1.8,0.7-2.5s1-0.9,1.8-0.9c0.4,0,0.7,0.1,1,0.2s0.5,0.3,0.7,0.6v-2.6l-1-0.2v-0.7h1h1.2v8.2l1,0.2v0.7h-2L386.3,119.5z M383.2,117.4c0,0.6,0.1,1.1,0.4,1.5s0.7,0.6,1.2,0.6c0.3,0,0.6-0.1,0.9-0.2s0.4-0.4,0.6-0.7v-2.9c-0.1-0.3-0.3-0.5-0.6-0.6 s-0.5-0.2-0.9-0.2c-0.6,0-1,0.2-1.2,0.7s-0.4,1.1-0.4,1.8V117.4z" class="st42"/><path d="M392.2,120.4c-0.9,0-1.6-0.3-2.1-0.9s-0.8-1.4-0.8-2.3V117c0-0.9,0.3-1.7,0.8-2.3s1.2-0.9,1.9-0.9 c0.9,0,1.5,0.3,1.9,0.8s0.7,1.2,0.7,2.1v0.7h-4.1l0,0c0,0.6,0.2,1.1,0.5,1.5s0.7,0.6,1.2,0.6c0.4,0,0.7-0.1,1-0.2s0.5-0.3,0.8-0.5 l0.5,0.8c-0.2,0.2-0.5,0.4-0.9,0.6S392.7,120.4,392.2,120.4z M392,114.8c-0.4,0-0.7,0.2-1,0.5s-0.4,0.7-0.5,1.2l0,0h2.9v-0.2 c0-0.5-0.1-0.8-0.4-1.1S392.5,114.8,392,114.8z" class="st42"/></g><g><g><path d="M122.4,356.6l1-0.2v-6.9l-1-0.2v-1.2h4v1.2l-1,0.2v2.6h0.8l1.9-2.7l-0.6-0.1v-1.2h3.8v1.2l-1,0.2l-2.4,3.2 l2.7,3.8l1,0.2v1.2h-3.8v-1.2l0.6-0.1l-1.9-2.8h-1.1v2.7l1,0.2v1.2h-4V356.6z" class="st42"/><path d="M137,356.9c-0.2,0.3-0.5,0.6-0.9,0.8c-0.3,0.2-0.7,0.3-1.2,0.3c-0.8,0-1.4-0.2-1.8-0.7 c-0.4-0.5-0.6-1.2-0.6-2.3v-3l-0.8-0.2v-1.2h0.8h1.9v4.3c0,0.5,0.1,0.9,0.3,1.1c0.2,0.2,0.4,0.3,0.8,0.3c0.3,0,0.6,0,0.8-0.1 s0.4-0.2,0.5-0.4V352l-0.8-0.2v-1.2h0.8h1.9v5.8l0.9,0.2v1.2h-2.6L137,356.9z" class="st42"/><path d="M147.4,354.4c0,1.1-0.2,1.9-0.7,2.6c-0.5,0.6-1.2,1-2.1,1c-0.4,0-0.8-0.1-1.1-0.3c-0.3-0.2-0.6-0.4-0.8-0.8 l-0.1,0.9H141v-9l-1-0.2v-1.2h3v3.9c0.2-0.3,0.5-0.5,0.7-0.7c0.3-0.2,0.6-0.2,1-0.2c0.9,0,1.6,0.3,2.1,1c0.5,0.7,0.7,1.6,0.7,2.8 V354.4z M145.5,354.3c0-0.7-0.1-1.3-0.3-1.7c-0.2-0.4-0.6-0.6-1.1-0.6c-0.3,0-0.6,0.1-0.8,0.2c-0.2,0.1-0.4,0.3-0.5,0.5v3 c0.1,0.2,0.3,0.4,0.5,0.5c0.2,0.1,0.5,0.2,0.8,0.2c0.5,0,0.8-0.2,1-0.5s0.3-0.9,0.3-1.5V354.3z" class="st42"/><path d="M151.8,358c-1,0-1.9-0.3-2.5-1c-0.6-0.7-0.9-1.5-0.9-2.5v-0.3c0-1.1,0.3-1.9,0.9-2.6c0.6-0.7,1.4-1,2.4-1 c1,0,1.7,0.3,2.3,0.9c0.5,0.6,0.8,1.4,0.8,2.4v1.1h-4.3l0,0c0,0.5,0.2,0.9,0.5,1.2c0.3,0.3,0.7,0.5,1.1,0.5c0.4,0,0.8,0,1.1-0.1 c0.3-0.1,0.6-0.2,0.9-0.4l0.5,1.2c-0.3,0.2-0.7,0.4-1.2,0.6C152.9,357.9,152.4,358,151.8,358z M151.6,352c-0.4,0-0.6,0.1-0.8,0.4 c-0.2,0.3-0.3,0.6-0.4,1.1l0,0h2.4v-0.2c0-0.4-0.1-0.7-0.3-1S152,352,151.6,352z" class="st42"/><path d="M155.7,356.6l0.9-0.2V352l-1-0.2v-1.2h2.8l0.1,1c0.2-0.4,0.4-0.7,0.7-0.9c0.3-0.2,0.6-0.3,0.9-0.3 c0.1,0,0.2,0,0.3,0c0.1,0,0.2,0,0.3,0.1l-0.2,1.8l-0.8,0c-0.3,0-0.5,0.1-0.7,0.2c-0.2,0.1-0.3,0.3-0.4,0.5v3.5l0.9,0.2v1.2h-3.8 V356.6z" class="st42"/><path d="M161.2,356.6l0.9-0.2V352l-1-0.2v-1.2h2.8l0.1,1c0.2-0.4,0.5-0.7,0.9-0.9s0.7-0.3,1.2-0.3 c0.7,0,1.3,0.2,1.7,0.7s0.6,1.2,0.6,2.1v3.1l0.9,0.2v1.2h-3.7v-1.2l0.8-0.2v-3.1c0-0.5-0.1-0.8-0.3-1c-0.2-0.2-0.5-0.3-0.9-0.3 c-0.3,0-0.5,0.1-0.7,0.2c-0.2,0.1-0.4,0.3-0.5,0.4v3.9l0.8,0.2v1.2h-3.7V356.6z" class="st42"/><path d="M173.3,358c-1,0-1.9-0.3-2.5-1c-0.6-0.7-0.9-1.5-0.9-2.5v-0.3c0-1.1,0.3-1.9,0.9-2.6c0.6-0.7,1.4-1,2.4-1 c1,0,1.7,0.3,2.3,0.9c0.5,0.6,0.8,1.4,0.8,2.4v1.1h-4.3l0,0c0,0.5,0.2,0.9,0.5,1.2c0.3,0.3,0.7,0.5,1.1,0.5c0.4,0,0.8,0,1.1-0.1 c0.3-0.1,0.6-0.2,0.9-0.4l0.5,1.2c-0.3,0.2-0.7,0.4-1.2,0.6C174.4,357.9,173.9,358,173.3,358z M173.1,352c-0.4,0-0.6,0.1-0.8,0.4 c-0.2,0.3-0.3,0.6-0.4,1.1l0,0h2.4v-0.2c0-0.4-0.1-0.7-0.3-1S173.5,352,173.1,352z" class="st42"/><path d="M180,348.9v1.8h1.3v1.4H180v3.7c0,0.3,0.1,0.5,0.2,0.6c0.1,0.1,0.3,0.2,0.5,0.2c0.1,0,0.2,0,0.3,0 c0.1,0,0.2,0,0.3-0.1l0.2,1.4c-0.2,0.1-0.4,0.1-0.6,0.1c-0.2,0-0.4,0-0.7,0c-0.7,0-1.2-0.2-1.5-0.6c-0.4-0.4-0.5-0.9-0.5-1.7V352 H177v-1.4h1.1v-1.8H180z" class="st42"/><path d="M185.6,358c-1,0-1.9-0.3-2.5-1c-0.6-0.7-0.9-1.5-0.9-2.5v-0.3c0-1.1,0.3-1.9,0.9-2.6c0.6-0.7,1.4-1,2.4-1 c1,0,1.7,0.3,2.3,0.9c0.5,0.6,0.8,1.4,0.8,2.4v1.1h-4.3l0,0c0,0.5,0.2,0.9,0.5,1.2c0.3,0.3,0.7,0.5,1.1,0.5c0.4,0,0.8,0,1.1-0.1 c0.3-0.1,0.6-0.2,0.9-0.4l0.5,1.2c-0.3,0.2-0.7,0.4-1.2,0.6C186.7,357.9,186.2,358,185.6,358z M185.5,352c-0.4,0-0.6,0.1-0.8,0.4 c-0.2,0.3-0.3,0.6-0.4,1.1l0,0h2.4v-0.2c0-0.4-0.1-0.7-0.3-1S185.9,352,185.5,352z" class="st42"/><path d="M189.6,356.6l0.9-0.2V352l-1-0.2v-1.2h2.8l0.1,1c0.2-0.4,0.4-0.7,0.7-0.9c0.3-0.2,0.6-0.3,0.9-0.3 c0.1,0,0.2,0,0.3,0c0.1,0,0.2,0,0.3,0.1l-0.2,1.8l-0.8,0c-0.3,0-0.5,0.1-0.7,0.2c-0.2,0.1-0.3,0.3-0.4,0.5v3.5l0.9,0.2v1.2h-3.8 V356.6z" class="st42"/><path d="M201,353.1h-1.3l-0.2-0.9c-0.1-0.1-0.3-0.2-0.5-0.3c-0.2-0.1-0.4-0.1-0.7-0.1c-0.3,0-0.6,0.1-0.8,0.2 s-0.3,0.3-0.3,0.6c0,0.2,0.1,0.4,0.3,0.5c0.2,0.1,0.6,0.3,1.1,0.4c0.9,0.2,1.5,0.4,2,0.8c0.4,0.3,0.6,0.8,0.6,1.4 c0,0.6-0.3,1.2-0.8,1.6c-0.6,0.4-1.3,0.6-2.2,0.6c-0.6,0-1.1-0.1-1.5-0.2c-0.5-0.2-0.9-0.4-1.2-0.7l0-1.6h1.4l0.3,0.9 c0.1,0.1,0.3,0.2,0.5,0.2s0.4,0.1,0.6,0.1c0.4,0,0.7-0.1,0.9-0.2c0.2-0.1,0.3-0.3,0.3-0.6c0-0.2-0.1-0.4-0.3-0.6 c-0.2-0.2-0.6-0.3-1.1-0.4c-0.8-0.2-1.5-0.4-1.9-0.8c-0.4-0.3-0.6-0.8-0.6-1.4c0-0.6,0.2-1.1,0.7-1.6s1.2-0.7,2.1-0.7 c0.6,0,1.1,0.1,1.6,0.2c0.5,0.2,0.9,0.3,1.2,0.6L201,353.1z" class="st42"/><path d="M208.9,356.5c0.3,0,0.6-0.1,0.8-0.3c0.2-0.2,0.3-0.5,0.3-0.8h1.8l0,0c0,0.7-0.3,1.3-0.8,1.8 c-0.6,0.5-1.3,0.7-2.1,0.7c-1.1,0-1.9-0.3-2.5-1s-0.9-1.5-0.9-2.6v-0.2c0-1.1,0.3-1.9,0.9-2.6s1.4-1,2.5-1c0.6,0,1.1,0.1,1.6,0.3 c0.5,0.2,0.8,0.4,1.1,0.7l0,1.9h-1.6l-0.3-1.1c-0.1-0.1-0.2-0.2-0.4-0.2c-0.1-0.1-0.3-0.1-0.5-0.1c-0.5,0-0.9,0.2-1.2,0.6 s-0.3,0.9-0.3,1.5v0.2c0,0.6,0.1,1.2,0.3,1.6C208,356.3,208.4,356.5,208.9,356.5z" class="st42"/><path d="M212.5,348.6v-1.2h3v9l0.9,0.2v1.2h-3.8v-1.2l0.9-0.2v-7.6L212.5,348.6z" class="st42"/><path d="M222,356.9c-0.2,0.3-0.5,0.6-0.9,0.8c-0.3,0.2-0.7,0.3-1.2,0.3c-0.8,0-1.4-0.2-1.8-0.7 c-0.4-0.5-0.6-1.2-0.6-2.3v-3l-0.8-0.2v-1.2h0.8h1.9v4.3c0,0.5,0.1,0.9,0.3,1.1c0.2,0.2,0.4,0.3,0.8,0.3c0.3,0,0.6,0,0.8-0.1 s0.4-0.2,0.5-0.4V352l-0.8-0.2v-1.2h0.8h1.9v5.8l0.9,0.2v1.2h-2.6L222,356.9z" class="st42"/><path d="M231.4,353.1h-1.3l-0.2-0.9c-0.1-0.1-0.3-0.2-0.5-0.3c-0.2-0.1-0.4-0.1-0.7-0.1c-0.3,0-0.6,0.1-0.8,0.2 s-0.3,0.3-0.3,0.6c0,0.2,0.1,0.4,0.3,0.5c0.2,0.1,0.6,0.3,1.1,0.4c0.9,0.2,1.5,0.4,2,0.8c0.4,0.3,0.6,0.8,0.6,1.4 c0,0.6-0.3,1.2-0.8,1.6c-0.6,0.4-1.3,0.6-2.2,0.6c-0.6,0-1.1-0.1-1.5-0.2c-0.5-0.2-0.9-0.4-1.2-0.7l0-1.6h1.4l0.3,0.9 c0.1,0.1,0.3,0.2,0.5,0.2s0.4,0.1,0.6,0.1c0.4,0,0.7-0.1,0.9-0.2c0.2-0.1,0.3-0.3,0.3-0.6c0-0.2-0.1-0.4-0.3-0.6 c-0.2-0.2-0.6-0.3-1.1-0.4c-0.8-0.2-1.5-0.4-1.9-0.8c-0.4-0.3-0.6-0.8-0.6-1.4c0-0.6,0.2-1.1,0.7-1.6s1.2-0.7,2.1-0.7 c0.6,0,1.1,0.1,1.6,0.2c0.5,0.2,0.9,0.3,1.2,0.6L231.4,353.1z" class="st42"/><path d="M235.4,348.9v1.8h1.3v1.4h-1.3v3.7c0,0.3,0.1,0.5,0.2,0.6c0.1,0.1,0.3,0.2,0.5,0.2c0.1,0,0.2,0,0.3,0 c0.1,0,0.2,0,0.3-0.1l0.2,1.4c-0.2,0.1-0.4,0.1-0.6,0.1c-0.2,0-0.4,0-0.7,0c-0.7,0-1.2-0.2-1.5-0.6c-0.4-0.4-0.5-0.9-0.5-1.7V352 h-1.1v-1.4h1.1v-1.8H235.4z" class="st42"/><path d="M241,358c-1,0-1.9-0.3-2.5-1c-0.6-0.7-0.9-1.5-0.9-2.5v-0.3c0-1.1,0.3-1.9,0.9-2.6c0.6-0.7,1.4-1,2.4-1 c1,0,1.7,0.3,2.3,0.9c0.5,0.6,0.8,1.4,0.8,2.4v1.1h-4.3l0,0c0,0.5,0.2,0.9,0.5,1.2c0.3,0.3,0.7,0.5,1.1,0.5c0.4,0,0.8,0,1.1-0.1 c0.3-0.1,0.6-0.2,0.9-0.4l0.5,1.2c-0.3,0.2-0.7,0.4-1.2,0.6C242.1,357.9,241.6,358,241,358z M240.8,352c-0.4,0-0.6,0.1-0.8,0.4 c-0.2,0.3-0.3,0.6-0.4,1.1l0,0h2.4v-0.2c0-0.4-0.1-0.7-0.3-1S241.2,352,240.8,352z" class="st42"/><path d="M245,356.6l0.9-0.2V352l-1-0.2v-1.2h2.8l0.1,1c0.2-0.4,0.4-0.7,0.7-0.9c0.3-0.2,0.6-0.3,0.9-0.3 c0.1,0,0.2,0,0.3,0c0.1,0,0.2,0,0.3,0.1l-0.2,1.8l-0.8,0c-0.3,0-0.5,0.1-0.7,0.2c-0.2,0.1-0.3,0.3-0.4,0.5v3.5l0.9,0.2v1.2H245 V356.6z" class="st42"/></g></g><line x1="360.6" x2="201.6" y1="191.7" y2="191.7" class="st62"/><line x1="360.6" x2="160" y1="228.8" y2="228.8" class="st62"/><line x1="360.6" x2="243.4" y1="118.3" y2="118.3" class="st62"/></g></svg>